<svg id="Multicolor" xmlns="http://www.w3.org/2000/svg" xmlns:xlink="http://www.w3.org/1999/xlink" viewBox="0 0 84 84"><defs><style>.cls-1,.cls-12,.cls-14,.cls-6,.cls-7{fill:none;}.cls-2{fill:#e8f4fa;}.cls-3{clip-path:url(#clip-path);}.cls-4{fill:#ff6242;}.cls-5{fill:#e04122;}.cls-12,.cls-13,.cls-14,.cls-18,.cls-20,.cls-21,.cls-6,.cls-7,.cls-8,.cls-9{stroke:#45413c;}.cls-18,.cls-20,.cls-21,.cls-6,.cls-7,.cls-8,.cls-9{stroke-linecap:round;}.cls-13,.cls-14,.cls-18,.cls-20,.cls-21,.cls-6,.cls-8,.cls-9{stroke-linejoin:round;}.cls-12,.cls-7{stroke-miterlimit:10;}.cls-15,.cls-8{fill:#656769;}.cls-9{fill:#fff;}.cls-10{fill:#6dd627;}.cls-11,.cls-13{fill:#9ceb60;}.cls-16,.cls-18{fill:#87898c;}.cls-17{fill:#ffe500;}.cls-19{fill:#ebcb00;}.cls-20{fill:#adc4d9;}.cls-21{fill:#00dfeb;}</style><clipPath id="clip-path"><circle class="cls-1" cx="42.02" cy="42.01" r="40"/></clipPath></defs><title>Harvest drone</title><g id="Background"><circle class="cls-2" cx="42.02" cy="42.01" r="40"/><g class="cls-3"><path class="cls-4" d="M66.44,49.14a.86.86,0,0,0-.28-.3l-5.74-3.75a.17.17,0,0,0-.18,0l-6.1,3.12a.88.88,0,0,0-.32.28l-3,4.63-.44,8.24,18.18,1L69,54.08Z"/><path class="cls-5" d="M66.44,49.14a.86.86,0,0,0-.28-.3l-5.74-3.75-.09,0-.09,0-6.1,3.12a.86.86,0,0,0-.31.27l-3,4.64-.15,2.81,4.13-6.08a.86.86,0,0,1,.31-.27L60.14,47l.09,0,.09,0,4.76,3.1a.86.86,0,0,1,.28.3l3.47,6.48L69,54.08Z"/><path class="cls-6" d="M66.44,49.14a.86.86,0,0,0-.28-.3l-5.74-3.75a.17.17,0,0,0-.18,0l-6.1,3.12a.88.88,0,0,0-.32.28l-3,4.63-.44,8.24,18.18,1L69,54.08Z"/><path class="cls-7" d="M70.39,56.86l-3.95-7.73a.86.86,0,0,0-.28-.3l-5.74-3.75a.17.17,0,0,0-.18,0l-6.1,3.12a.88.88,0,0,0-.32.28L49.1,55.73"/><rect class="cls-8" x="57.66" y="56.42" width="4.18" height="5.43" transform="translate(3.22 -3.08) rotate(3.04)"/><rect class="cls-9" x="53.78" y="56.2" width="3.88" height="5.43" transform="translate(3.2 -2.87) rotate(3.04)"/><rect class="cls-9" x="61.83" y="56.63" width="3.88" height="5.43" transform="translate(3.23 -3.3) rotate(3.04)"/><path class="cls-8" d="M60,49.25h.09a1,1,0,0,1,1,1v2.59a0,0,0,0,1,0,0H59a0,0,0,0,1,0,0V50.25A1,1,0,0,1,60,49.25Z" transform="translate(2.79 -3.11) rotate(3.04)"/><path class="cls-10" d="M.21,91.09H90.38l4.88-23.22A176,176,0,0,0,42,59.93,179.18,179.18,0,0,0-4.4,65.87Z"/><path class="cls-11" d="M50.9,91.09H67.59L58.88,60.68q-5.53-.49-11.22-.66Z"/><path class="cls-11" d="M16.45,91.09H33.14L36.38,60c-3.79.11-7.54.34-11.22.67Z"/><path class="cls-12" d="M.21,91.09H90.38l4.88-23.22A176,176,0,0,0,42,59.93,179.18,179.18,0,0,0-4.4,65.87Z"/></g><path class="cls-13" d="M44.06,52.92c0,2.06-.74,3.83-1.56,3.83S40.94,55,40.94,52.92s1.56-6.15,1.56-6.15S44.06,50.86,44.06,52.92Z"/><line class="cls-14" x1="42.5" y1="56.75" x2="42.5" y2="58.73"/></g><g id="Scene"><path class="cls-15" d="M10,18.51l14.73-1.58-.4-3.66L9.56,14.85a1.84,1.84,0,0,0-1.63,2h0A1.84,1.84,0,0,0,10,18.51Z"/><path class="cls-15" d="M53.51,13.83,38.78,15.41l-.4-3.66,14.73-1.58a1.84,1.84,0,0,1,2,1.63h0A1.84,1.84,0,0,1,53.51,13.83Z"/><path class="cls-16" d="M7.93,16.88v0l16.55-1.87-.19-1.79L9.56,14.85A1.84,1.84,0,0,0,7.93,16.88Z"/><path class="cls-16" d="M38.57,13.47,55.1,11.6a1.84,1.84,0,0,0-2-1.44L38.38,11.75Z"/><path class="cls-17" d="M34.21,22.17h0a5.9,5.9,0,0,1-3.62.39h0a5.9,5.9,0,0,1-4.65-5.14l-.07-.62L37.6,15.54l.07.62A5.9,5.9,0,0,1,34.21,22.17Z"/><path class="cls-18" d="M35,10.75l-7.59.82.75-5.08A1,1,0,0,1,29,5.68l3.19-.34a1,1,0,0,1,1,.61Z"/><path class="cls-8" d="M38.78,15.41l-14.1,1.51-.44-4.06a1,1,0,0,1,.85-1.05l12.19-1.31a1,1,0,0,1,1.05.85Z"/><path class="cls-19" d="M34.21,19.74A6.74,6.74,0,0,1,26,17.49a5.89,5.89,0,0,0,11.71-1.31A6.75,6.75,0,0,1,34.21,19.74Z"/><path class="cls-6" d="M34.21,22.17h0a5.9,5.9,0,0,1-3.62.39h0a5.9,5.9,0,0,1-4.65-5.14l-.07-.62L37.6,15.54l.07.62A5.9,5.9,0,0,1,34.21,22.17Z"/><line class="cls-6" x1="53.13" y1="4.2" x2="53.47" y2="7.4"/><path class="cls-9" d="M59.54,3.51a5.3,5.3,0,0,1-3.06,1.72,5.3,5.3,0,0,1-3.35-1,5.3,5.3,0,0,1,3.06-1.72A5.3,5.3,0,0,1,59.54,3.51Z"/><path class="cls-9" d="M46.72,4.89a5.3,5.3,0,0,0,3.35,1A5.3,5.3,0,0,0,53.13,4.2a5.3,5.3,0,0,0-3.35-1A5.3,5.3,0,0,0,46.72,4.89Z"/><rect class="cls-8" x="51.17" y="7.39" width="4.95" height="2.71" rx="1" ry="1" transform="translate(-0.63 5.78) rotate(-6.13)"/><path class="cls-6" d="M53.51,13.83,38.78,15.41l-.4-3.66,14.73-1.58a1.84,1.84,0,0,1,2,1.63h0A1.84,1.84,0,0,1,53.51,13.83Z"/><path class="cls-6" d="M10,18.51l14.73-1.58-.4-3.66L9.56,14.85a1.84,1.84,0,0,0-1.63,2h0A1.84,1.84,0,0,0,10,18.51Z"/><line class="cls-6" x1="8.28" y1="9.02" x2="8.62" y2="12.22"/><path class="cls-9" d="M1.87,9.71a5.3,5.3,0,0,0,3.35,1A5.3,5.3,0,0,0,8.28,9,5.3,5.3,0,0,0,4.92,8,5.3,5.3,0,0,0,1.87,9.71Z"/><path class="cls-9" d="M14.68,8.33A5.3,5.3,0,0,1,11.63,10,5.3,5.3,0,0,1,8.28,9,5.3,5.3,0,0,1,11.33,7.3,5.3,5.3,0,0,1,14.68,8.33Z"/><rect class="cls-8" x="6.26" y="12.22" width="4.95" height="2.71" rx="1" ry="1" transform="translate(18.87 26.13) rotate(173.87)"/><line class="cls-6" x1="25.87" y1="16.8" x2="25.02" y2="32.5"/><line class="cls-6" x1="37.53" y1="15.55" x2="41.69" y2="30.7"/><line class="cls-6" x1="6.33" y1="28.86" x2="59.25" y2="23.18"/><line class="cls-6" x1="32.43" y1="22.65" x2="32.79" y2="26.02"/><polygon class="cls-20" points="56.39 24.88 58.05 26.15 59.4 24.56 59.25 23.18 56.24 23.5 56.39 24.88"/><polygon class="cls-20" points="31.44 27.56 33.09 28.83 34.44 27.24 34.29 25.86 31.29 26.18 31.44 27.56"/><polygon class="cls-20" points="6.48 30.24 8.14 31.51 9.49 29.92 9.34 28.54 6.33 28.86 6.48 30.24"/><path class="cls-21" d="M12.88,38.33a2.83,2.83,0,0,1-5.6.81c-.22-1.55,2.09-5.31,2.09-5.31S12.65,36.78,12.88,38.33Z"/><path class="cls-21" d="M37.24,36.46a2.83,2.83,0,0,1-5.6.81C31.41,35.73,33.73,32,33.73,32S37,34.92,37.24,36.46Z"/><path class="cls-21" d="M61.86,33.33a2.83,2.83,0,1,1-5.6.81c-.22-1.55,2.09-5.31,2.09-5.31S61.64,31.78,61.86,33.33Z"/></g></svg>